<?xml version="1.0" standalone="no"?>
<!DOCTYPE svg PUBLIC "-//W3C//DTD SVG 20010904//EN"
 "http://www.w3.org/TR/2001/REC-SVG-20010904/DTD/svg10.dtd">
<svg version="1.0" xmlns="http://www.w3.org/2000/svg"
 width="500.000000pt" height="500.000000pt" viewBox="0 0 500.000000 500.000000"
 preserveAspectRatio="xMidYMid meet">

<g transform="translate(0.000000,500.000000) scale(0.100000,-0.100000)"
fill="#000000" stroke="none">
<path d="M1710 2800 l-500 -1000 179 0 180 0 82 160 83 160 643 0 642 0 81
-160 81 -160 184 0 184 0 -491 978 c-270 537 -497 987 -505 1000 -13 21 -18
22 -178 22 l-165 0 -500 -1000z m915 97 l240 -472 -484 -3 c-266 -1 -486 0
-488 2 -3 2 104 218 237 481 133 262 245 473 249 470 3 -4 114 -219 246 -478z"/>
</g>
</svg>
